<svg width="25" height="24" viewBox="0 0 25 24" fill="none" xmlns="http://www.w3.org/2000/svg">
<g clip-path="url(#clip0_2001_354)">
<g clip-path="url(#clip1_2001_354)">
<path d="M12.9339 9.70933C12.6331 9.70933 12.3352 9.76859 12.0572 9.88372C11.7792 9.99885 11.5267 10.1676 11.3139 10.3803C11.1012 10.5931 10.9324 10.8456 10.8173 11.1236C10.7022 11.4016 10.6429 11.6995 10.6429 12.0003C10.6429 12.3012 10.7022 12.5991 10.8173 12.8771C10.9324 13.155 11.1012 13.4076 11.3139 13.6203C11.5267 13.833 11.7792 14.0018 12.0572 14.1169C12.3352 14.2321 12.6331 14.2913 12.9339 14.2913C13.5415 14.2913 14.1243 14.05 14.5539 13.6203C14.9835 13.1907 15.2249 12.6079 15.2249 12.0003C15.2249 11.3927 14.9835 10.81 14.5539 10.3803C14.1243 9.9507 13.5415 9.70933 12.9339 9.70933ZM12.9339 8.18133C13.4407 8.17313 13.9441 8.26586 14.4146 8.45413C14.8852 8.6424 15.3136 8.92243 15.6749 9.27792C16.0362 9.6334 16.3231 10.0572 16.519 10.5247C16.7149 10.9922 16.8157 11.494 16.8157 12.0008C16.8157 12.5077 16.7149 13.0095 16.519 13.4769C16.3231 13.9444 16.0362 14.3683 15.6749 14.7237C15.3136 15.0792 14.8852 15.3593 14.4146 15.5475C13.9441 15.7358 13.4407 15.8285 12.9339 15.8203C11.9208 15.8203 10.9492 15.4179 10.2328 14.7015C9.51639 13.9851 9.11392 13.0135 9.11392 12.0003C9.11392 10.9872 9.51639 10.0156 10.2328 9.29918C10.9492 8.58279 11.9208 8.18133 12.9339 8.18133ZM17.8989 7.99033C17.9031 8.11827 17.8814 8.24575 17.8353 8.36517C17.7892 8.48459 17.7196 8.59353 17.6305 8.6855C17.5415 8.77747 17.4349 8.8506 17.317 8.90055C17.1991 8.95049 17.0724 8.97623 16.9444 8.97623C16.8164 8.97623 16.6897 8.95049 16.5718 8.90055C16.454 8.8506 16.3473 8.77747 16.2583 8.6855C16.1693 8.59353 16.0996 8.48459 16.0535 8.36517C16.0074 8.24575 15.9858 8.11827 15.9899 7.99033C15.9899 7.73705 16.0905 7.49414 16.2696 7.31504C16.4487 7.13594 16.6916 7.03533 16.9449 7.03533C17.1982 7.03533 17.4411 7.13594 17.6202 7.31504C17.7993 7.49414 17.8989 7.73705 17.8989 7.99033ZM12.9339 5.89033C11.0439 5.89033 10.7359 5.89433 9.85692 5.93333C9.25692 5.96233 8.85592 6.04233 8.48292 6.18733C8.15192 6.31533 7.91292 6.46933 7.65792 6.72433C7.41792 6.95533 7.23492 7.23733 7.11992 7.54933C6.97492 7.92333 6.89492 8.32433 6.86692 8.92333C6.82692 9.76633 6.82292 10.0613 6.82292 12.0003C6.82292 13.8903 6.82792 14.1993 6.86692 15.0783C6.89592 15.6763 6.97592 16.0783 7.11992 16.4513C7.24992 16.7833 7.40292 17.0223 7.65692 17.2763C7.91392 17.5323 8.15292 17.6863 8.48192 17.8133C8.85892 17.9593 9.26092 18.0403 9.85692 18.0673C10.6999 18.1073 10.9949 18.1113 12.9339 18.1113C14.8239 18.1113 15.1329 18.1063 16.0119 18.0673C16.6089 18.0393 17.0119 17.9593 17.3849 17.8143C17.7149 17.6853 17.9559 17.5323 18.2099 17.2783C18.4669 17.0203 18.6199 16.7813 18.7469 16.4533C18.8929 16.0763 18.9739 15.6733 19.0009 15.0783C19.0409 14.2353 19.0449 13.9403 19.0449 12.0003C19.0449 10.1103 19.0399 9.80233 19.0009 8.92333C18.9729 8.32533 18.8929 7.92233 18.7469 7.54933C18.6318 7.23765 18.4483 6.95574 18.2099 6.72433C17.979 6.48503 17.697 6.3011 17.3849 6.18633C17.0109 6.04133 16.6089 5.96133 16.0119 5.93333C15.1689 5.89333 14.8739 5.89033 12.9339 5.89033ZM12.9339 4.36133C15.0099 4.36133 15.2689 4.36933 16.0829 4.40733C16.8969 4.44533 17.4499 4.57333 17.9379 4.76233C18.4419 4.95633 18.8669 5.21933 19.2909 5.64333C19.6799 6.02533 19.9809 6.48733 20.1719 6.99733C20.3609 7.48333 20.4889 8.03733 20.5269 8.85133C20.5629 9.66633 20.5729 9.92533 20.5729 12.0013C20.5729 14.0763 20.5649 14.3353 20.5269 15.1493C20.4889 15.9633 20.3609 16.5163 20.1719 17.0043C19.9809 17.5143 19.6799 17.9763 19.2919 18.3573C18.9098 18.7457 18.4478 19.0463 17.9379 19.2383C17.4509 19.4273 16.8959 19.5553 16.0829 19.5933C15.2689 19.6293 15.0099 19.6393 12.9339 19.6393C10.8589 19.6393 10.5999 19.6313 9.78492 19.5933C8.97192 19.5553 8.41792 19.4273 7.93092 19.2383C7.42083 19.0472 6.95871 18.7469 6.57692 18.3583C6.18864 17.9763 5.88833 17.5143 5.69692 17.0043C5.50692 16.5173 5.37892 15.9623 5.34092 15.1493C5.30492 14.3353 5.29492 14.0763 5.29492 12.0003C5.29492 9.92533 5.30292 9.66633 5.34092 8.85133C5.37892 8.03733 5.50692 7.48433 5.69592 6.99733C5.88792 6.48733 6.18792 6.02533 6.57692 5.64333C6.95879 5.25489 7.42089 4.95456 7.93092 4.76333C8.41792 4.57333 8.97092 4.44533 9.78492 4.40733C10.5999 4.37133 10.8589 4.36133 12.9349 4.36133H12.9339Z" fill="white"/>
</g>
</g>
<defs>
<clipPath id="clip0_2001_354">
<rect width="24" height="24" fill="white" transform="translate(0.934082)"/>
</clipPath>
<clipPath id="clip1_2001_354">
<rect width="24" height="24" fill="white" transform="translate(0.934082)"/>
</clipPath>
</defs>
</svg>
