<svg width="25" height="24" viewBox="0 0 25 24" fill="none" xmlns="http://www.w3.org/2000/svg">
<g clip-path="url(#clip0_2001_376)">
<g clip-path="url(#clip1_2001_376)">
<path d="M9.30812 16.9596L9.86112 17.2836C11.1441 18.0299 12.6549 18.2837 14.1114 17.9976C15.5678 17.7116 16.8703 16.9052 17.7758 15.7291C18.6812 14.553 19.1277 13.0876 19.0318 11.6064C18.9359 10.1252 18.3042 8.7296 17.2547 7.68006C16.2052 6.63053 14.8095 5.99885 13.3284 5.90296C11.8472 5.80707 10.3818 6.25353 9.20566 7.15898C8.02957 8.06443 7.22321 9.36697 6.93714 10.8234C6.65108 12.2799 6.90487 13.7906 7.65112 15.0736L7.97412 15.6266L7.47412 17.4606L9.30812 16.9606V16.9596ZM5.29812 19.6396L6.33112 15.8436C5.39779 14.2399 5.08011 12.3513 5.4374 10.5304C5.79468 8.7096 6.8025 7.08106 8.27266 5.94893C9.74282 4.8168 11.5748 4.25848 13.4265 4.37824C15.2782 4.498 17.023 5.28765 18.335 6.59973C19.6471 7.9118 20.4368 9.6566 20.5565 11.5083C20.6763 13.36 20.118 15.1919 18.9858 16.6621C17.8537 18.1323 16.2252 19.1401 14.4043 19.4974C12.5835 19.8547 10.6949 19.537 9.09112 18.6036L5.29812 19.6396ZM10.1781 8.41565C10.2803 8.40815 10.3828 8.40715 10.4851 8.41265L10.6091 8.42465C10.7301 8.43865 10.8641 8.51265 10.9091 8.61465C11.1371 9.13165 11.3591 9.65165 11.5721 10.1736C11.6201 10.2896 11.5921 10.4386 11.5021 10.5836C11.4391 10.6816 11.3721 10.7766 11.3001 10.8676C11.2141 10.9776 11.0281 11.1816 11.0281 11.1816C11.0281 11.1816 10.9531 11.2716 10.9821 11.3836C10.9921 11.4266 11.0281 11.4886 11.0601 11.5406L11.1051 11.6136C11.3001 11.9396 11.5631 12.2706 11.8841 12.5816C11.9751 12.6706 12.0641 12.7616 12.1611 12.8466C12.519 13.1621 12.9238 13.4199 13.3611 13.6106L13.3641 13.6116C13.4291 13.6396 13.4621 13.6556 13.5571 13.6956C13.6041 13.7156 13.6531 13.7326 13.7031 13.7456C13.7544 13.7586 13.8083 13.7561 13.8581 13.7385C13.9079 13.7209 13.9514 13.6889 13.9831 13.6466C14.5361 12.9766 14.5871 12.9336 14.5911 12.9336V12.9346C14.6296 12.8989 14.6753 12.8717 14.7252 12.855C14.775 12.8383 14.8278 12.8324 14.8801 12.8376C14.9265 12.8397 14.9722 12.8498 15.0151 12.8676C15.4211 13.0536 16.0851 13.3436 16.0851 13.3436L16.5291 13.5436C16.6041 13.5786 16.6721 13.6636 16.6741 13.7456C16.6771 13.7956 16.6821 13.8786 16.6641 14.0306C16.6422 14.223 16.5941 14.4114 16.5211 14.5906C16.4803 14.6753 16.4263 14.753 16.3611 14.8206C16.2837 14.9016 16.199 14.9752 16.1081 15.0406C16.0769 15.0643 16.0452 15.0873 16.0131 15.1096C15.9181 15.1696 15.8201 15.2256 15.7201 15.2776C15.5235 15.3821 15.3064 15.4422 15.0841 15.4536C14.9421 15.4606 14.8011 15.4716 14.6591 15.4636L14.2251 15.3976C13.1392 15.1119 12.1349 14.5767 11.2921 13.8346C11.1191 13.6826 10.9601 13.5196 10.7961 13.3566C10.1161 12.6806 9.60312 11.9506 9.29112 11.2616C9.13154 10.9235 9.04532 10.5555 9.03812 10.1816C9.03534 9.71829 9.18699 9.26722 9.46912 8.89965C9.52512 8.82765 9.57812 8.75265 9.66912 8.66665C9.73488 8.59802 9.81035 8.53939 9.89312 8.49265C9.98162 8.44807 10.0782 8.42188 10.1771 8.41565H10.1781Z" fill="white"/>
</g>
</g>
<defs>
<clipPath id="clip0_2001_376">
<rect width="24" height="24" fill="white" transform="translate(0.934082)"/>
</clipPath>
<clipPath id="clip1_2001_376">
<rect width="24" height="24" fill="white" transform="translate(0.934082)"/>
</clipPath>
</defs>
</svg>
